<svg width="1160" height="21" viewBox="0 0 1160 21" fill="none" xmlns="http://www.w3.org/2000/svg" xmlns:xlink="http://www.w3.org/1999/xlink">
    <mask id="mask0_0_1" style="mask-type:alpha" maskUnits="userSpaceOnUse" x="410" y="1" width="2" height="21">
        <path d="M411 1.00024V21.0002" stroke="black" stroke-width="2"/>
    </mask>
    <g mask="url(#mask0_0_1)">
        <rect x="1097" y="-155" width="1473" height="1473" transform="rotate(90 1097 -155)" fill="url(#pattern0)"/>
    </g>
    <mask id="mask1_0_1" style="mask-type:alpha" maskUnits="userSpaceOnUse" x="748" y="1" width="2" height="21">
        <path d="M749 1.00024V21.0002" stroke="black" stroke-width="2"/>
    </mask>
    <g mask="url(#mask1_0_1)">
        <rect x="1435" y="-155" width="1473" height="1473" transform="rotate(90 1435 -155)" fill="url(#pattern1)"/>
    </g>
    <mask id="mask2_0_1" style="mask-type:alpha" maskUnits="userSpaceOnUse" x="0" y="0" width="1160" height="3">
        <path d="M0 1.00024H1160" stroke="black" stroke-width="2"/>
    </mask>
    <g mask="url(#mask2_0_1)">
        <rect x="-156" y="-685" width="1473" height="1473" fill="url(#pattern2)"/>
    </g>
    <mask id="mask3_0_1" style="mask-type:alpha" maskUnits="userSpaceOnUse" x="72" y="1" width="2" height="21">
        <path d="M73 1.00024V21.0002" stroke="black" stroke-width="2"/>
    </mask>
    <g mask="url(#mask3_0_1)">
        <rect x="759" y="-155" width="1473" height="1473" transform="rotate(90 759 -155)" fill="url(#pattern3)"/>
    </g>
    <mask id="mask4_0_1" style="mask-type:alpha" maskUnits="userSpaceOnUse" x="1086" y="1" width="2" height="21">
        <path d="M1087 1.00024V21.0002" stroke="black" stroke-width="2"/>
    </mask>
    <g mask="url(#mask4_0_1)">
        <rect x="1773" y="-155" width="1473" height="1473" transform="rotate(90 1773 -155)" fill="url(#pattern4)"/>
    </g>
    <defs>
        <pattern id="pattern0" patternContentUnits="objectBoundingBox" width="1" height="1">
            <use xlink:href="#image0_0_1" transform="scale(0.00059988)"/>
        </pattern>
        <pattern id="pattern1" patternContentUnits="objectBoundingBox" width="1" height="1">
            <use xlink:href="#image0_0_1" transform="scale(0.00059988)"/>
        </pattern>
        <pattern id="pattern2" patternContentUnits="objectBoundingBox" width="1" height="1">
            <use xlink:href="#image0_0_1" transform="scale(0.00059988)"/>
        </pattern>
        <pattern id="pattern3" patternContentUnits="objectBoundingBox" width="1" height="1">
            <use xlink:href="#image0_0_1" transform="scale(0.00059988)"/>
        </pattern>
        <pattern id="pattern4" patternContentUnits="objectBoundingBox" width="1" height="1">
            <use xlink:href="#image0_0_1" transform="scale(0.00059988)"/>
        </pattern>
        <image id="image0_0_1" width="1667" height="1667" xlink:href="../../img/decoration/img.png"/>
    </defs>
</svg>
